<svg version="1.0" xmlns="http://www.w3.org/2000/svg" viewBox="0 0 500 500"><path d="M234 1.6c-23.5 2-41.7 5.7-62.4 12.5-62 20.6-113.8 65.1-143.2 123.4-17.5 34.8-25.2 65.6-26.1 105.1-.8 30.7 1.6 50.7 9.3 77.1C29.2 380.4 70 432.5 125.4 464.9c26.1 15.2 53.8 25.2 85.6 30.7 12.7 2.2 52.2 3.1 65.9 1.5 30.2-3.6 56-11.1 82.6-24.1 26.7-13.1 45.1-26.4 66.6-48.1 39-39.3 63.2-88.7 70.5-144 2.3-17.6 1.5-55.4-1.5-72.4-4.6-25.5-10.8-45-21.6-67-12.8-26.2-25.2-44-45-64.4-39.1-40.3-88.8-65.6-145-73.7C273.6 2 242.6.8 234 1.6zm42.9 51.9c31 4.1 58.4 14.3 83.7 31.4 42.8 28.7 71.1 70.9 81.9 122.1 3.6 16.9 4.6 47.4 2.1 65.4-5.1 36-18.5 67.1-41.6 96-8 10.1-20.3 22.6-22.1 22.6-1.2 0-41.9-59.4-41.9-61.1 0-.3 5.1-.9 11.3-1.3 20-1.2 31.4-2.7 34.7-4.8 3.4-2 6.9-8.7 7-13 0-3.6-1.7-7.8-4.2-10.5-1.8-2-1.9-2.6-.8-5.2 2.4-5.9-.7-11.4-8.2-14.6-4.9-2-33.4-2.1-49.6-.1-6.4.8-14.1 1.7-17 1.9l-5.2.4-13.5-19.7c-7.4-10.9-13.5-20.2-13.5-20.8 0-1.7 28.3-27.2 47-42.2 5.1-4.1 13.2-10.7 17.9-14.5 4.7-3.9 10.2-8.1 12.1-9.4 5.1-3.5 11.9-10.2 13.6-13.4.8-1.5 1.5-5.5 1.5-9 0-3.4.1-7.5.1-9 0-1.7-.8-3.8-2.1-5-2.5-2.6.3-2.5-46.1-1.3-22.4.5-37 .4-47-.4-8-.6-26.5-1.4-41.2-1.7-14.6-.3-27-.8-27.6-1.2-1.4-.9-36.2-52.9-36.2-54.1 0-.6-.9-3-2-5.2-1.1-2.3-2-4.3-2-4.5 0-1.6 23.1-10 37.9-13.8 20.6-5.3 49-6.9 71-4zm-140.6 63.1c5.9 9.1 10.5 16.9 10.2 17.3-.2.5-6.8.6-14.6.4-17.4-.5-17.8-.3-17.9 9.6-.2 13.9.2 20.7 1.3 23 2 4.1 6.7 6 18.8 7.7 25.5 3.6 45.4 7.5 47 9.2 2.1 2.2 32.9 48.1 32.9 49 0 1.2-14.8 17.1-21.3 22.9-3.4 3-10.7 8.9-16.2 13-9.3 7-35.5 29.3-39.7 33.8-6.6 7.1-10.8 12.4-11.6 14.6-1.3 3.3.3 12.6 2.5 15.2 3.8 4.2 7.3 4.8 19 3.2 5.9-.8 20-1.9 31.3-2.6 11.3-.6 30.4-1.6 42.5-2.3 12.1-.6 30.3-1.2 40.4-1.1h18.4l29.8 44c16.4 24.2 29.8 44.6 29.9 45.3.1 3-29.3 13.8-48.5 17.8-16.5 3.5-47.5 4.4-64.5 2-57.5-8.4-105-38.6-136.7-86.7-45.3-69.1-41-161.6 10.5-226.4 6.9-8.7 23.2-25.5 24.6-25.4.6 0 5.9 7.4 11.9 16.5zM268 184.9c0 .9-14.4 13-16.3 13.6-1.3.5-10.1-12.1-9.3-13.3.6-1 25.6-1.2 25.6-.3zm-20.6 97.2c1.5 2.2 2.5 4.3 2.2 4.6-.9.9-18.7 3.5-19.4 2.9-.3-.4.3-1.3 1.4-2 1-.8 4.2-3.2 6.9-5.5 2.8-2.2 5.3-4 5.6-4.1.4 0 1.9 1.8 3.3 4.1z" fill="#fff"/></svg>