<?xml version="1.0" encoding="utf-8"?>
<svg viewBox="64.454 114.294 537.109 63.041" xmlns="http://www.w3.org/2000/svg">
  <g fill="#fff" transform="matrix(1, 0, 0, 1, -179, -238)">
    <path d="m262.161 384.27 27.09 31.05h5.58l-29.61-34.38 27.72-28.62h-5.58l-39.33 40.5v-40.5h-4.59v63h4.59v-16.56zM368.402 367.62c-2.88-4.77-6.84-8.46-11.88-11.25-5.04-2.7-10.89-4.05-17.37-4.05h-24.93v4.14h24.57c5.76 0 10.89 1.17 15.39 3.51 4.41 2.34 7.83 5.58 10.26 9.63 2.34 4.14 3.6 8.91 3.6 14.22 0 5.4-1.26 10.08-3.6 14.22-2.43 4.14-5.85 7.38-10.26 9.72-4.5 2.34-9.63 3.42-15.39 3.42h-19.98v-27.36h-4.59v31.5h24.93c6.48 0 12.33-1.35 17.37-4.05 5.04-2.7 9-6.39 11.88-11.16 2.79-4.77 4.23-10.17 4.23-16.29 0-6.03-1.44-11.43-4.23-16.2zM418.239 352.32h-4.59l-28.98 63h4.95l26.28-57.96 26.37 57.96h4.95zM464.464 414.6c.72.72 1.62 1.08 2.7 1.08.99 0 1.89-.36 2.61-1.08.72-.72 1.17-1.71 1.17-2.79s-.45-1.98-1.17-2.7a3.604 3.604 0 0 0-2.61-1.08c-1.08 0-1.98.36-2.7 1.08-.72.72-1.08 1.62-1.08 2.7s.36 2.07 1.08 2.79zM545.874 352.32h-4.59v54.72l-42.84-54.72h-3.87v63h4.59V360.6l42.93 54.72h3.78zM598.415 352.32h-4.59l-28.98 63h4.95l26.28-57.96 26.37 57.96h4.95zM705.912 415.32h4.5l-.09-63h-3.78l-28.17 48.69-28.17-48.69h-3.87v63h4.5v-53.73l26.37 45.36h2.25l26.37-45.54zM780.559 381.3h-40.77v4.05h40.77zm0-28.98h-40.77v4.14h40.77zm-40.77 58.86v4.14h40.77v-4.14z"/>
  </g>
</svg>